<?xml version="1.0" encoding="UTF-8" standalone="no"?>
<svg
   xmlns:dc="http://purl.org/dc/elements/1.1/"
   xmlns:cc="http://creativecommons.org/ns#"
   xmlns:rdf="http://www.w3.org/1999/02/22-rdf-syntax-ns#"
   xmlns:svg="http://www.w3.org/2000/svg"
   xmlns="http://www.w3.org/2000/svg"
   xmlns:sodipodi="http://sodipodi.sourceforge.net/DTD/sodipodi-0.dtd"
   xmlns:inkscape="http://www.inkscape.org/namespaces/inkscape"
   viewBox="0 0 127.87381 128"
   id="svg3104"
   version="1.1"
   inkscape:version="0.48.2 r9819"
   width="100%"
   height="100%"
   sodipodi:docname="cash.svg"
   inkscape:export-filename="/Users/noseglid/devel/atd/resources/textures/cash.png"
   inkscape:export-xdpi="90"
   inkscape:export-ydpi="90">
  <metadata
     id="metadata3186">
    <rdf:RDF>
      <cc:Work
         rdf:about="">
        <dc:format>image/svg+xml</dc:format>
        <dc:type
           rdf:resource="http://purl.org/dc/dcmitype/StillImage" />
        <dc:title></dc:title>
      </cc:Work>
    </rdf:RDF>
  </metadata>
  <defs
     id="defs3184" />
  <sodipodi:namedview
     pagecolor="#ffffff"
     bordercolor="#666666"
     borderopacity="1"
     objecttolerance="10"
     gridtolerance="10"
     guidetolerance="10"
     inkscape:pageopacity="0"
     inkscape:pageshadow="2"
     inkscape:window-width="1088"
     inkscape:window-height="913"
     id="namedview3182"
     showgrid="false"
     fit-margin-top="0"
     fit-margin-left="0"
     fit-margin-right="0"
     fit-margin-bottom="0"
     inkscape:zoom="5.6568544"
     inkscape:cx="55.09093"
     inkscape:cy="69.36393"
     inkscape:window-x="883"
     inkscape:window-y="187"
     inkscape:window-maximized="0"
     inkscape:current-layer="svg3104" />
  <path
     d="M 0,0 H 127.78666 V 128 H 0 z"
     id="path3106"
     inkscape:connector-curvature="0"
     style="fill:none" />
  <g
     transform="matrix(4.6643576,0,0,4.672145,-738.13176,-9865.6162)"
     id="g3108">
    <path
       d="m 175.3704,2126.4924 c 0,1.3709 -2.3676,2.4822 -5.2881,2.4822 -2.9205,0 -5.2881,-1.1113 -5.2881,-2.4822 0,-1.3709 2.3676,-2.4821 5.2881,-2.4821 2.9205,0 5.2881,1.1113 5.2881,2.4821 z"
       transform="matrix(1,0,0,1.07047,9.0653,-142.16372)"
       id="path3110"
       inkscape:connector-curvature="0"
       style="fill:#ffff00;stroke:#000000;stroke-width:0.96649998000000004" />
    <path
       d="m 182.3833,2133.7629 v 2.6943"
       id="path3112"
       inkscape:connector-curvature="0"
       style="fill:none;stroke:#000000" />
    <path
       d="m 181.6282,2134.3118 v 2.6943"
       id="path3114"
       inkscape:connector-curvature="0"
       style="fill:none;stroke:#000000" />
    <path
       d="m 177.5828,2127.2813 c 0,3.349 -3.3877,6.0639 -7.5667,6.0639 -4.179,0 -6.7861,-2.8071 -7.5667,-6.0639 -1.0818,-4.5138 4.0494,-10.9187 9.0689,-10.0137 4.1126,0.7416 6.0645,6.6648 6.0645,10.0137 z"
       id="path3116"
       inkscape:connector-curvature="0"
       style="fill:#808000;stroke:#000000" />
    <path
       d="m 175.3704,2126.4924 c 0,1.3709 -2.3676,2.4822 -5.2881,2.4822 -2.9205,0 -5.2881,-1.1113 -5.2881,-2.4822 0,-1.3709 2.3676,-2.4821 5.2881,-2.4821 2.9205,0 5.2881,1.1113 5.2881,2.4821 z"
       transform="translate(-1.7421,6.8981)"
       id="path3118"
       inkscape:connector-curvature="0"
       style="fill:#ffff00;stroke:#000000" />
    <path
       d="m 175.3704,2126.4924 c 0,1.3709 -2.3676,2.4822 -5.2881,2.4822 -2.9205,0 -5.2881,-1.1113 -5.2881,-2.4822 0,-1.3709 2.3676,-2.4821 5.2881,-2.4821 2.9205,0 5.2881,1.1113 5.2881,2.4821 z"
       transform="matrix(1,0,0,1.07047,9.0653,-144.59808)"
       id="path3120"
       inkscape:connector-curvature="0"
       style="fill:#ffff00;stroke:#000000;stroke-width:0.96649998000000004" />
    <path
       d="m 175.3704,2126.4924 c 0,1.3709 -2.3676,2.4822 -5.2881,2.4822 -2.9205,0 -5.2881,-1.1113 -5.2881,-2.4822 0,-1.3709 2.3676,-2.4821 5.2881,-2.4821 2.9205,0 5.2881,1.1113 5.2881,2.4821 z"
       transform="matrix(1,0,0,1.07047,8.41778,-146.90858)"
       id="path3122"
       inkscape:connector-curvature="0"
       style="fill:#ffff00;stroke:#000000;stroke-width:0.96649998000000004" />
    <path
       d="m 175.3704,2126.4924 c 0,1.3709 -2.3676,2.4822 -5.2881,2.4822 -2.9205,0 -5.2881,-1.1113 -5.2881,-2.4822 0,-1.3709 2.3676,-2.4821 5.2881,-2.4821 2.9205,0 5.2881,1.1113 5.2881,2.4821 z"
       transform="matrix(1,0,0,1.07047,9.82074,-148.99122)"
       id="path3124"
       inkscape:connector-curvature="0"
       style="fill:#ffff00;stroke:#000000;stroke-width:0.96649998000000004" />
    <path
       d="m 175.3704,2126.4924 c 0,1.3709 -2.3676,2.4822 -5.2881,2.4822 -2.9205,0 -5.2881,-1.1113 -5.2881,-2.4822 0,-1.3709 2.3676,-2.4821 5.2881,-2.4821 2.9205,0 5.2881,1.1113 5.2881,2.4821 z"
       transform="matrix(1,0,0,1.07047,9.0653,-151.41725)"
       id="path3126"
       inkscape:connector-curvature="0"
       style="fill:#ffff00;stroke:#000000;stroke-width:0.96649998000000004" />
    <path
       d="m 175.3704,2126.4924 c 0,1.3709 -2.3676,2.4822 -5.2881,2.4822 -2.9205,0 -5.2881,-1.1113 -5.2881,-2.4822 0,-1.3709 2.3676,-2.4821 5.2881,-2.4821 2.9205,0 5.2881,1.1113 5.2881,2.4821 z"
       transform="matrix(1,0,0,1.07047,9.0653,-153.72776)"
       id="path3128"
       inkscape:connector-curvature="0"
       style="fill:#ffff00;stroke:#000000;stroke-width:0.96649998000000004" />
    <path
       d="m 175.3704,2126.4924 c 0,1.3709 -2.3676,2.4822 -5.2881,2.4822 -2.9205,0 -5.2881,-1.1113 -5.2881,-2.4822 0,-1.3709 2.3676,-2.4821 5.2881,-2.4821 2.9205,0 5.2881,1.1113 5.2881,2.4821 z"
       transform="matrix(1,0,0,1.07047,8.30986,-155.99191)"
       id="path3130"
       inkscape:connector-curvature="0"
       style="fill:#ffff00;stroke:#000000;stroke-width:0.96649998000000004" />
    <path
       d="m 171.3706,2133.1241 v 2.0179"
       id="path3132"
       inkscape:connector-curvature="0"
       style="fill:none;stroke:#000000" />
    <path
       d="m 170.6155,2133.673 v 2.0179"
       id="path3134"
       inkscape:connector-curvature="0"
       style="fill:none;stroke:#000000" />
    <path
       d="m 181.8494,2119.9932 c 0,0.5373 -1.6869,0.9729 -3.7679,0.9729 -2.081,0 -3.7679,-0.4356 -3.7679,-0.9729 0,-0.5373 1.6869,-0.973 3.7679,-0.973 2.081,0 3.7679,0.4356 3.7679,0.973 z"
       transform="matrix(0.92685,0,0,1.37898,3.79773,-790.51013)"
       id="path3136"
       inkscape:connector-curvature="0"
       style="fill:#ffff00" />
    <path
       d="m 175.3704,2126.4924 c 0,1.3709 -2.3676,2.4822 -5.2881,2.4822 -2.9205,0 -5.2881,-1.1113 -5.2881,-2.4822 0,-1.3709 2.3676,-2.4821 5.2881,-2.4821 2.9205,0 5.2881,1.1113 5.2881,2.4821 z"
       transform="matrix(0.8648,0,0,1.03261,19.48295,-59.97781)"
       id="path3138"
       inkscape:connector-curvature="0"
       style="fill:#ffff00;stroke:#000000;stroke-width:1.05820000000000003" />
    <path
       d="m 169.3484,2135.6042 v 2.0179"
       id="path3140"
       inkscape:connector-curvature="0"
       style="fill:none;stroke:#000000" />
    <path
       d="m 168.5933,2136.1531 v 2.0179"
       id="path3142"
       inkscape:connector-curvature="0"
       style="fill:none;stroke:#000000" />
    <path
       d="m 181.8494,2119.9932 c 0,0.5373 -1.6869,0.9729 -3.7679,0.9729 -2.081,0 -3.7679,-0.4356 -3.7679,-0.9729 0,-0.5373 1.6869,-0.973 3.7679,-0.973 2.081,0 3.7679,0.4356 3.7679,0.973 z"
       transform="matrix(0.92685,0,0,1.37898,1.77548,-788.03002)"
       id="path3144"
       inkscape:connector-curvature="0"
       style="fill:#ffff00" />
    <path
       d="m 175.3704,2126.4924 c 0,1.3709 -2.3676,2.4822 -5.2881,2.4822 -2.9205,0 -5.2881,-1.1113 -5.2881,-2.4822 0,-1.3709 2.3676,-2.4821 5.2881,-2.4821 2.9205,0 5.2881,1.1113 5.2881,2.4821 z"
       transform="matrix(0.88207,-0.20496,0.18471,0.97877,-379.28249,86.80133)"
       id="path3146"
       inkscape:connector-curvature="0"
       style="fill:#ffff00;stroke:#000000;stroke-width:1.05340004000000009" />
    <path
       d="m 181.3531,2120.4047 v 2.0179"
       id="path3148"
       inkscape:connector-curvature="0"
       style="fill:none;stroke:#000000" />
    <path
       d="m 182.3833,2122.2415 v 4.5553"
       id="path3150"
       inkscape:connector-curvature="0"
       style="fill:none;stroke:#000000" />
    <path
       d="m 183.3753,2126.4728 v 2.7384"
       id="path3152"
       inkscape:connector-curvature="0"
       style="fill:none;stroke:#000000" />
    <path
       d="m 181.2195,2129.5484 v 2.3337"
       id="path3154"
       inkscape:connector-curvature="0"
       style="fill:none;stroke:#000000" />
    <path
       d="m 182.3833,2131.3285 v 2.6943"
       id="path3156"
       inkscape:connector-curvature="0"
       style="fill:none;stroke:#000000" />
    <path
       d="m 180.598,2120.9536 v 2.0179"
       id="path3158"
       inkscape:connector-curvature="0"
       style="fill:none;stroke:#000000" />
    <path
       d="m 181.6282,2122.7904 v 4.5553"
       id="path3160"
       inkscape:connector-curvature="0"
       style="fill:none;stroke:#000000" />
    <path
       d="m 182.6202,2127.0217 v 2.7384"
       id="path3162"
       inkscape:connector-curvature="0"
       style="fill:none;stroke:#000000" />
    <path
       d="m 180.4644,2130.0973 v 1.8377"
       id="path3164"
       inkscape:connector-curvature="0"
       style="fill:none;stroke:#000000" />
    <path
       d="m 181.6282,2131.8774 v 2.6943"
       id="path3166"
       inkscape:connector-curvature="0"
       style="fill:none;stroke:#000000" />
    <path
       d="m 181.8494,2119.9932 c 0,0.5373 -1.6869,0.9729 -3.7679,0.9729 -2.081,0 -3.7679,-0.4356 -3.7679,-0.9729 0,-0.5373 1.6869,-0.973 3.7679,-0.973 2.081,0 3.7679,0.4356 3.7679,0.973 z"
       transform="matrix(0.92685,0,0,1.37898,13.78017,-803.2295)"
       id="path3168"
       inkscape:connector-curvature="0"
       style="fill:#ffff00" />
    <path
       d="m 166.3756,2132.3503 -2e-5,2.0178"
       id="path3170"
       inkscape:connector-curvature="0"
       style="fill:none;stroke:#000000" />
    <path
       d="m 165.7501,2133.0759 -2e-5,2.0178"
       id="path3172"
       inkscape:connector-curvature="0"
       style="fill:none;stroke:#000000" />
    <path
       d="m 181.8494,2119.9932 c 0,0.5373 -1.6869,0.9729 -3.7679,0.9729 -2.081,0 -3.7679,-0.4356 -3.7679,-0.9729 0,-0.5373 1.6869,-0.973 3.7679,-0.973 2.081,0 3.7679,0.4356 3.7679,0.973 z"
       transform="matrix(0.89527,-0.23989,0.35691,1.33199,-752.44079,-648.25816)"
       id="path3174"
       inkscape:connector-curvature="0"
       style="fill:#ffff00" />
    <path
       d="m 161.047,2115.6557 4.8665,3.7609 c 1.6611,0.5875 4.4933,-0.059 6.1335,-1.6697 l 1.8277,-4.5153 c -0.8561,-1.1285 -2.9821,-1.6904 -4.4,0.09 -1.682,-1.0378 -4.151,-0.7676 -4.8443,1.1445 -1.8784,-0.9643 -2.6097,-0.2184 -3.5833,1.1893 z"
       id="path3176"
       inkscape:connector-curvature="0"
       style="fill:#808000;stroke:#000000" />
    <path
       d="m 167.0499,2121.1107 c 0.0825,1.4248 0.7108,2.5449 1.5472,3.5485"
       id="path3178"
       inkscape:connector-curvature="0"
       style="fill:none;stroke:#000000" />
    <path
       d="m 167.6337,2119.7589 c -1.469,2.3755 -1.2338,4.9041 -0.3482,7.4911"
       id="path3180"
       inkscape:connector-curvature="0"
       style="fill:none;stroke:#000000" />
  </g>
</svg>
