<?xml version="1.0" encoding="UTF-8" standalone="no"?>
<svg
   xmlns:dc="http://purl.org/dc/elements/1.1/"
   xmlns:cc="http://creativecommons.org/ns#"
   xmlns:rdf="http://www.w3.org/1999/02/22-rdf-syntax-ns#"
   xmlns:svg="http://www.w3.org/2000/svg"
   xmlns="http://www.w3.org/2000/svg"
   xmlns:sodipodi="http://sodipodi.sourceforge.net/DTD/sodipodi-0.dtd"
   xmlns:inkscape="http://www.inkscape.org/namespaces/inkscape"
   viewBox="0 0 128.01417 128.0019"
   id="svg2"
   version="1.1"
   inkscape:version="0.48.2 r9819"
   width="100%"
   height="100%"
   sodipodi:docname="sages_hero.svg"
   inkscape:export-filename="/Users/noseglid/devel/atd/resources/textures/sages_hero.png"
   inkscape:export-xdpi="90"
   inkscape:export-ydpi="90">
  <metadata
     id="metadata22">
    <rdf:RDF>
      <cc:Work
         rdf:about="">
        <dc:format>image/svg+xml</dc:format>
        <dc:type
           rdf:resource="http://purl.org/dc/dcmitype/StillImage" />
        <dc:title></dc:title>
      </cc:Work>
    </rdf:RDF>
  </metadata>
  <defs
     id="defs20">
    <filter
       inkscape:collect="always"
       id="filter4020">
      <feGaussianBlur
         inkscape:collect="always"
         stdDeviation="0.12712009"
         id="feGaussianBlur4022" />
    </filter>
    <filter
       inkscape:collect="always"
       id="filter4024">
      <feGaussianBlur
         inkscape:collect="always"
         stdDeviation="0.02739707"
         id="feGaussianBlur4026" />
    </filter>
    <filter
       inkscape:collect="always"
       id="filter4028">
      <feGaussianBlur
         inkscape:collect="always"
         stdDeviation="0.12712009"
         id="feGaussianBlur4030" />
    </filter>
    <filter
       inkscape:collect="always"
       id="filter4032">
      <feGaussianBlur
         inkscape:collect="always"
         stdDeviation="0.12712009"
         id="feGaussianBlur4034" />
    </filter>
    <filter
       inkscape:collect="always"
       id="filter4036">
      <feGaussianBlur
         inkscape:collect="always"
         stdDeviation="0.12712009"
         id="feGaussianBlur4038" />
    </filter>
  </defs>
  <sodipodi:namedview
     pagecolor="#ffffff"
     bordercolor="#666666"
     borderopacity="1"
     objecttolerance="10"
     gridtolerance="10"
     guidetolerance="10"
     inkscape:pageopacity="0"
     inkscape:pageshadow="2"
     inkscape:window-width="1666"
     inkscape:window-height="1242"
     id="namedview18"
     showgrid="false"
     inkscape:zoom="5.3587818"
     inkscape:cx="12.393693"
     inkscape:cy="63.658885"
     inkscape:window-x="582"
     inkscape:window-y="87"
     inkscape:window-maximized="0"
     inkscape:current-layer="svg2"
     fit-margin-top="0"
     fit-margin-left="0"
     fit-margin-right="0"
     fit-margin-bottom="0" />
  <path
     d="M 0,0 H 126.23828 V 128.0019 H 0 z"
     id="path4"
     inkscape:connector-curvature="0"
     style="fill:none;filter:url(#filter4020)"
     inkscape:export-xdpi="90"
     inkscape:export-ydpi="90" />
  <g
     transform="matrix(4.6078401,0,0,4.6722143,-1300.5668,-1970.9145)"
     id="g6"
     inkscape:export-filename="/Users/noseglid/devel/atd/resources/textures/path4.png"
     inkscape:export-xdpi="90"
     inkscape:export-ydpi="90"
     style="filter:url(#filter4024)">
    <path
       d="m 286.7147,448.2678 -3.0849,-3.0847 5.6821,-21.1955 4.1272,-1.1059 15.1473,15.1719 -1.2576,4.6906 -20.6142,5.5236 z"
       id="path8"
       inkscape:connector-curvature="0"
       style="fill:none" />
    <path
       d="m 294.1272,433.0476 -2.7375,10.2063 18.1395,-4.8605"
       id="path10"
       inkscape:connector-curvature="0"
       style="fill:none;stroke:none;opacity:0.29999999999999999" />
    <path
       d="m 298.6868,437.7677 -7.4702,-7.474 -4.8605,18.1395"
       id="path12"
       inkscape:connector-curvature="0"
       style="fill:none;stroke:none;opacity:0.29999999999999999" />
    <path
       d="m 292.2756,439.3395 10.2077,-2.7324 -13.279,-13.2791"
       id="path14"
       inkscape:connector-curvature="0"
       style="fill:none;stroke:none;opacity:0.29999999999999999" />
    <path
       d="m 730.8832,78.096 -4.32,-7.4824 h 8.6399 z"
       transform="matrix(0.6951,-0.18625,-0.18625,-0.6951,-199.45736,623.67293)"
       id="path16"
       inkscape:connector-curvature="0"
       style="fill:none" />
  </g>
  <path
     style="fill:#800080;stroke:#220b28;stroke-width:1.99999992000000004;stroke-miterlimit:4;stroke-dasharray:none;filter:url(#filter4028)"
     d="M 11.910521,114.41466 6.5367077,108.95936 19.34094,60.48315 c 7.042327,-26.66191 12.894083,-48.69461 13.0039,-48.96157 0.159848,-0.38856 5.766277,5.15951 28.110294,27.81768 15.350843,15.56667 27.854552,28.34768 27.786018,28.40225 -0.178273,0.14196 -11.783498,3.2503 -12.109964,3.24354 -0.149405,-0.003 -8.321378,-8.16712 -18.159943,-18.14227 L 40.082946,34.70613 39.695604,36.06255 c -0.213037,0.74603 -5.280284,19.90689 -11.260545,42.57968 -5.980263,22.67281 -10.935647,41.22428 -11.011965,41.2255 -0.07632,0.001 -2.556976,-2.45266 -5.512573,-5.45307 l 0,0 z"
     id="path2999"
     inkscape:connector-curvature="0"
     inkscape:export-filename="/Users/noseglid/devel/atd/resources/textures/path4.png"
     inkscape:export-xdpi="90"
     inkscape:export-ydpi="90" />
  <path
     style="fill:#800080;stroke:#220b28;stroke-width:1.99999992000000004;fill-opacity:1;stroke-miterlimit:4;stroke-dasharray:none;filter:url(#filter4032)"
     d="m 22.605361,119.93901 c 9.109262,-34.54857 19.909661,-75.3202 19.967972,-75.37933 0.04186,-0.0425 2.137084,2.01531 4.656048,4.57279 l 4.579935,4.64995 -6.562411,24.8087 c -3.609328,13.64479 -6.531849,24.83971 -6.494496,24.87758 0.03735,0.0379 18.178275,-4.85292 40.313159,-10.86843 22.134882,-6.01551 40.302312,-10.87942 40.372062,-10.8087 0.16185,0.16411 -3.88934,15.49464 -4.15437,15.72102 -0.17508,0.14952 -92.937298,25.39577 -93.311646,25.39577 -0.08204,0 0.203146,-1.33621 0.633747,-2.96935 z"
     id="path3001"
     inkscape:connector-curvature="0"
     inkscape:export-filename="/Users/noseglid/devel/atd/resources/textures/path4.png"
     inkscape:export-xdpi="90"
     inkscape:export-ydpi="90" />
  <path
     style="fill:#800080;stroke:#220b28;stroke-width:1.99999992000000004;fill-opacity:1;stroke-miterlimit:4;stroke-dasharray:none;filter:url(#filter4036)"
     d="m 45.756488,96.16664 c 0,-0.35705 3.206475,-12.5202 3.321083,-12.5979 0.04624,-0.0313 10.993581,-3.01082 24.32743,-6.62107 C 86.73885,73.33742 97.705031,70.32613 97.77429,70.2559 97.84355,70.1856 84.308835,56.34654 67.69715,39.50227 L 37.49409,8.87632 38.696862,8.54452 c 0.661523,-0.1825 3.798572,-1.04128 6.971218,-1.90841 l 5.768448,-1.57659 34.944143,35.43314 c 22.898089,23.21852 34.807759,35.48139 34.548519,35.57313 -0.40478,0.14325 -73.066985,19.8658 -74.423569,20.20063 -0.450635,0.11124 -0.749133,0.0715 -0.749133,-0.0998 z"
     id="path3003"
     inkscape:connector-curvature="0"
     inkscape:export-filename="/Users/noseglid/devel/atd/resources/textures/path4.png"
     inkscape:export-xdpi="90"
     inkscape:export-ydpi="90" />
</svg>
