<?xml version="1.0" encoding="UTF-8" standalone="no"?>
<svg
   xmlns:osb="http://www.openswatchbook.org/uri/2009/osb"
   xmlns:dc="http://purl.org/dc/elements/1.1/"
   xmlns:cc="http://creativecommons.org/ns#"
   xmlns:rdf="http://www.w3.org/1999/02/22-rdf-syntax-ns#"
   xmlns:svg="http://www.w3.org/2000/svg"
   xmlns="http://www.w3.org/2000/svg"
   xmlns:xlink="http://www.w3.org/1999/xlink"
   xmlns:sodipodi="http://sodipodi.sourceforge.net/DTD/sodipodi-0.dtd"
   xmlns:inkscape="http://www.inkscape.org/namespaces/inkscape"
   viewBox="0 0 128 128"
   id="svg3044"
   version="1.1"
   inkscape:version="0.48.2 r9819"
   width="100%"
   height="100%"
   sodipodi:docname="sages_arcane.svg"
   inkscape:export-filename="/Users/noseglid/devel/atd/resources/textures/sages_arcane.png"
   inkscape:export-xdpi="90"
   inkscape:export-ydpi="90">
  <metadata
     id="metadata3066">
    <rdf:RDF>
      <cc:Work
         rdf:about="">
        <dc:format>image/svg+xml</dc:format>
        <dc:type
           rdf:resource="http://purl.org/dc/dcmitype/StillImage" />
        <dc:title></dc:title>
      </cc:Work>
    </rdf:RDF>
  </metadata>
  <defs
     id="defs3064">
    <linearGradient
       id="linearGradient5865">
      <stop
         style="stop-color:#ff00ff;stop-opacity:1;"
         offset="0"
         id="stop5867" />
      <stop
         id="stop6067"
         offset="0.67460257"
         style="stop-color:#ff00ff;stop-opacity:0.49803922;" />
      <stop
         style="stop-color:#ff00ff;stop-opacity:0;"
         offset="1"
         id="stop5869" />
    </linearGradient>
    <linearGradient
       id="linearGradient4407"
       osb:paint="solid">
      <stop
         style="stop-color:#000000;stop-opacity:1;"
         offset="0"
         id="stop4409" />
    </linearGradient>
    <radialGradient
       inkscape:collect="always"
       xlink:href="#linearGradient5865"
       id="radialGradient5873"
       cx="64.862709"
       cy="63.555328"
       fx="64.862709"
       fy="63.555328"
       r="9.7387676"
       gradientTransform="matrix(1.580865,0,0,1.5808495,-37.143507,-36.916084)"
       gradientUnits="userSpaceOnUse"
       spreadMethod="pad" />
    <radialGradient
       inkscape:collect="always"
       xlink:href="#linearGradient5865"
       id="radialGradient6152"
       gradientUnits="userSpaceOnUse"
       gradientTransform="matrix(1.0726082,0,0,1.0725977,26.576064,20.682461)"
       spreadMethod="pad"
       cx="64.862709"
       cy="63.555328"
       fx="64.862709"
       fy="63.555328"
       r="9.7387676" />
    <radialGradient
       inkscape:collect="always"
       xlink:href="#linearGradient5865"
       id="radialGradient6156"
       gradientUnits="userSpaceOnUse"
       gradientTransform="matrix(1.0726082,0,0,1.0725977,-38.423936,-54.317539)"
       spreadMethod="pad"
       cx="64.862709"
       cy="63.555328"
       fx="64.862709"
       fy="63.555328"
       r="9.7387676" />
    <filter
       inkscape:collect="always"
       id="filter3848"
       x="-0.17722082"
       width="1.3544416"
       y="-0.17722251"
       height="1.354445">
      <feGaussianBlur
         inkscape:collect="always"
         stdDeviation="1.5426896"
         id="feGaussianBlur3850" />
    </filter>
    <filter
       inkscape:collect="always"
       id="filter3852"
       x="-0.17722083"
       width="1.3544417"
       y="-0.1772225"
       height="1.354445">
      <feGaussianBlur
         inkscape:collect="always"
         stdDeviation="1.5426896"
         id="feGaussianBlur3854" />
    </filter>
  </defs>
  <sodipodi:namedview
     pagecolor="#ffffff"
     bordercolor="#666666"
     borderopacity="1"
     objecttolerance="10"
     gridtolerance="10"
     guidetolerance="10"
     inkscape:pageopacity="0"
     inkscape:pageshadow="2"
     inkscape:window-width="1374"
     inkscape:window-height="1069"
     id="namedview3062"
     showgrid="false"
     inkscape:zoom="2.8284272"
     inkscape:cx="30.810289"
     inkscape:cy="47.509797"
     inkscape:window-x="548"
     inkscape:window-y="159"
     inkscape:window-maximized="0"
     inkscape:current-layer="svg3044"
     fit-margin-top="0"
     fit-margin-left="0"
     fit-margin-right="0"
     fit-margin-bottom="0"
     inkscape:object-paths="true"
     inkscape:snap-nodes="false" />
  <path
     d="m 106.04904,64.418762 c 0,22.632292 -18.347437,40.979538 -40.97955,40.979538 -22.632121,0 -40.979559,-18.347246 -40.979559,-40.979538 0,-22.632322 18.347438,-40.979549 40.979559,-40.979549 22.632113,0 40.97955,18.347227 40.97955,40.979549 z"
     id="path3048"
     inkscape:connector-curvature="0"
     style="opacity:1;fill:none;stroke:#800080;stroke-width:9.63068389999999930;stroke-miterlimit:4;stroke-dasharray:none" />
  <path
     d="m 124.2601,63.986424 c 0,32.686662 -26.498252,59.184656 -59.184648,59.184656 -32.686432,0 -59.1846658,-26.497994 -59.1846658,-59.184656 0,-32.686667 26.4982338,-59.1846588 59.1846658,-59.1846588 32.686396,0 59.184648,26.4979918 59.184648,59.1846588 z"
     id="path3050"
     inkscape:connector-curvature="0"
     style="opacity:1;fill:none;stroke:#800080;stroke-width:9.63068389999999930;stroke-miterlimit:4;stroke-dasharray:none" />
  <path
     d="m 108.84736,89.282473 c 0,6.926652 -5.61496,12.541537 -12.541682,12.541537 -6.92672,0 -12.541667,-5.614885 -12.541667,-12.541537 0,-6.926642 5.614947,-12.541562 12.541667,-12.541562 6.926722,0 12.541682,5.61492 12.541682,12.541562 z"
     id="path3052"
     inkscape:connector-curvature="0"
     style="fill:#800080;stroke:#800080" />
  <path
     d="m 43.334115,14.412446 c 0,6.485608 -5.257425,11.742982 -11.743097,11.742982 -6.485662,0 -11.743097,-5.257374 -11.743097,-11.742982 0,-6.4856068 5.257435,-11.7429805 11.743097,-11.7429805 6.485672,0 11.743097,5.2573737 11.743097,11.7429805 z"
     id="path3054"
     inkscape:connector-curvature="0"
     style="fill:#800080;stroke:#800080" />
  <g
     transform="matrix(2.4851813,0,0,2.4851566,-231.98879,-192.86728)"
     id="g3056">
    <path
       d="m 119.4375,90.123 c -0.7879,3.3775 -2.2961,6.5579 -4.5281,8.7899 -2.232,2.232 -5.146,3.4738 -8.5235,4.2618 3.3776,0.7879 6.5578,2.2961 8.7899,4.5281 2.2321,2.232 3.4739,5.146 4.2618,8.5235 0.7879,-3.3775 2.0297,-6.2915 4.2618,-8.5235 2.2321,-2.232 5.4123,-3.7402 8.7899,-4.5281 -3.4037,-0.7843 -6.2784,-2.0166 -8.5236,-4.2618 -2.2452,-2.2452 -3.7438,-5.3862 -4.5281,-8.7899 z"
       id="path3058"
       inkscape:connector-curvature="0"
       style="fill:#800080;stroke:#800080" />
  </g>
  <path
     d="m 80.791355,63.555326 c 0,8.502817 -6.892777,15.395529 -15.395678,15.395529 C 56.892777,78.950855 50,72.058143 50,63.555326 c 0,-8.502814 6.892777,-15.395525 15.395677,-15.395525 8.502901,0 15.395678,6.892711 15.395678,15.395525 z"
     id="path3060"
     inkscape:connector-curvature="0"
     style="fill:url(#radialGradient5873);fill-opacity:1" />
  <path
     style="fill:url(#radialGradient6152);fill-opacity:1;filter:url(#filter3852)"
     inkscape:connector-curvature="0"
     id="path6150"
     d="m 106.59421,88.851761 c 0,5.769115 -4.67671,10.445784 -10.445873,10.445784 -5.769171,0 -10.445882,-4.676669 -10.445882,-10.445784 0,-5.769113 4.676711,-10.445779 10.445882,-10.445779 5.769163,0 10.445873,4.676666 10.445873,10.445779 z" />
  <path
     d="m 41.594216,13.851761 c 0,5.769115 -4.67671,10.445784 -10.445879,10.445784 -5.769171,0 -10.445882,-4.676669 -10.445882,-10.445784 0,-5.7691123 4.676711,-10.4457783 10.445882,-10.4457783 5.769169,0 10.445879,4.676666 10.445879,10.4457783 z"
     id="path6154"
     inkscape:connector-curvature="0"
     style="fill:url(#radialGradient6156);fill-opacity:1;filter:url(#filter3848)" />
</svg>
